G04 #@! TF.FileFunction,Legend,Top*
%FSLAX46Y46*%
G04 Gerber Fmt 4.6, Leading zero omitted, Abs format (unit mm)*
G04 Created by KiCad (PCBNEW 4.0.7) date 07/18/19 16:35:03*
%MOMM*%
%LPD*%
G01*
G04 APERTURE LIST*
%ADD10C,0.100000*%
%ADD11C,0.200000*%
%ADD12C,0.120000*%
%ADD13C,0.150000*%
G04 APERTURE END LIST*
D10*
D11*
X144938905Y-111212381D02*
X145557953Y-111212381D01*
X145224619Y-111593333D01*
X145367477Y-111593333D01*
X145462715Y-111640952D01*
X145510334Y-111688571D01*
X145557953Y-111783810D01*
X145557953Y-112021905D01*
X145510334Y-112117143D01*
X145462715Y-112164762D01*
X145367477Y-112212381D01*
X145081762Y-112212381D01*
X144986524Y-112164762D01*
X144938905Y-112117143D01*
X145843667Y-111212381D02*
X146177000Y-112212381D01*
X146510334Y-111212381D01*
X146748429Y-111212381D02*
X147367477Y-111212381D01*
X147034143Y-111593333D01*
X147177001Y-111593333D01*
X147272239Y-111640952D01*
X147319858Y-111688571D01*
X147367477Y-111783810D01*
X147367477Y-112021905D01*
X147319858Y-112117143D01*
X147272239Y-112164762D01*
X147177001Y-112212381D01*
X146891286Y-112212381D01*
X146796048Y-112164762D01*
X146748429Y-112117143D01*
X144946953Y-109624762D02*
X145089810Y-109672381D01*
X145327906Y-109672381D01*
X145423144Y-109624762D01*
X145470763Y-109577143D01*
X145518382Y-109481905D01*
X145518382Y-109386667D01*
X145470763Y-109291429D01*
X145423144Y-109243810D01*
X145327906Y-109196190D01*
X145137429Y-109148571D01*
X145042191Y-109100952D01*
X144994572Y-109053333D01*
X144946953Y-108958095D01*
X144946953Y-108862857D01*
X144994572Y-108767619D01*
X145042191Y-108720000D01*
X145137429Y-108672381D01*
X145375525Y-108672381D01*
X145518382Y-108720000D01*
X145851715Y-108672381D02*
X146089810Y-109672381D01*
X146280287Y-108958095D01*
X146470763Y-109672381D01*
X146708858Y-108672381D01*
X147089810Y-109672381D02*
X147089810Y-108672381D01*
X147327905Y-108672381D01*
X147470763Y-108720000D01*
X147566001Y-108815238D01*
X147613620Y-108910476D01*
X147661239Y-109100952D01*
X147661239Y-109243810D01*
X147613620Y-109434286D01*
X147566001Y-109529524D01*
X147470763Y-109624762D01*
X147327905Y-109672381D01*
X147089810Y-109672381D01*
X148089810Y-109672381D02*
X148089810Y-108672381D01*
X148756476Y-108672381D02*
X148946953Y-108672381D01*
X149042191Y-108720000D01*
X149137429Y-108815238D01*
X149185048Y-109005714D01*
X149185048Y-109339048D01*
X149137429Y-109529524D01*
X149042191Y-109624762D01*
X148946953Y-109672381D01*
X148756476Y-109672381D01*
X148661238Y-109624762D01*
X148566000Y-109529524D01*
X148518381Y-109339048D01*
X148518381Y-109005714D01*
X148566000Y-108815238D01*
X148661238Y-108720000D01*
X148756476Y-108672381D01*
X144931095Y-107084762D02*
X145073952Y-107132381D01*
X145312048Y-107132381D01*
X145407286Y-107084762D01*
X145454905Y-107037143D01*
X145502524Y-106941905D01*
X145502524Y-106846667D01*
X145454905Y-106751429D01*
X145407286Y-106703810D01*
X145312048Y-106656190D01*
X145121571Y-106608571D01*
X145026333Y-106560952D01*
X144978714Y-106513333D01*
X144931095Y-106418095D01*
X144931095Y-106322857D01*
X144978714Y-106227619D01*
X145026333Y-106180000D01*
X145121571Y-106132381D01*
X145359667Y-106132381D01*
X145502524Y-106180000D01*
X145835857Y-106132381D02*
X146073952Y-107132381D01*
X146264429Y-106418095D01*
X146454905Y-107132381D01*
X146693000Y-106132381D01*
X147645381Y-107037143D02*
X147597762Y-107084762D01*
X147454905Y-107132381D01*
X147359667Y-107132381D01*
X147216809Y-107084762D01*
X147121571Y-106989524D01*
X147073952Y-106894286D01*
X147026333Y-106703810D01*
X147026333Y-106560952D01*
X147073952Y-106370476D01*
X147121571Y-106275238D01*
X147216809Y-106180000D01*
X147359667Y-106132381D01*
X147454905Y-106132381D01*
X147597762Y-106180000D01*
X147645381Y-106227619D01*
X148550143Y-107132381D02*
X148073952Y-107132381D01*
X148073952Y-106132381D01*
X148883476Y-107132381D02*
X148883476Y-106132381D01*
X149454905Y-107132381D02*
X149026333Y-106560952D01*
X149454905Y-106132381D02*
X148883476Y-106703810D01*
X145542096Y-103640000D02*
X145446858Y-103592381D01*
X145304001Y-103592381D01*
X145161143Y-103640000D01*
X145065905Y-103735238D01*
X145018286Y-103830476D01*
X144970667Y-104020952D01*
X144970667Y-104163810D01*
X145018286Y-104354286D01*
X145065905Y-104449524D01*
X145161143Y-104544762D01*
X145304001Y-104592381D01*
X145399239Y-104592381D01*
X145542096Y-104544762D01*
X145589715Y-104497143D01*
X145589715Y-104163810D01*
X145399239Y-104163810D01*
X146018286Y-104592381D02*
X146018286Y-103592381D01*
X146589715Y-104592381D01*
X146589715Y-103592381D01*
X147065905Y-104592381D02*
X147065905Y-103592381D01*
X147304000Y-103592381D01*
X147446858Y-103640000D01*
X147542096Y-103735238D01*
X147589715Y-103830476D01*
X147637334Y-104020952D01*
X147637334Y-104163810D01*
X147589715Y-104354286D01*
X147542096Y-104449524D01*
X147446858Y-104544762D01*
X147304000Y-104592381D01*
X147065905Y-104592381D01*
X157297619Y-103322381D02*
X156964285Y-102846190D01*
X156726190Y-103322381D02*
X156726190Y-102322381D01*
X157107143Y-102322381D01*
X157202381Y-102370000D01*
X157250000Y-102417619D01*
X157297619Y-102512857D01*
X157297619Y-102655714D01*
X157250000Y-102750952D01*
X157202381Y-102798571D01*
X157107143Y-102846190D01*
X156726190Y-102846190D01*
X157726190Y-102798571D02*
X158059524Y-102798571D01*
X158202381Y-103322381D02*
X157726190Y-103322381D01*
X157726190Y-102322381D01*
X158202381Y-102322381D01*
X158583333Y-103274762D02*
X158726190Y-103322381D01*
X158964286Y-103322381D01*
X159059524Y-103274762D01*
X159107143Y-103227143D01*
X159154762Y-103131905D01*
X159154762Y-103036667D01*
X159107143Y-102941429D01*
X159059524Y-102893810D01*
X158964286Y-102846190D01*
X158773809Y-102798571D01*
X158678571Y-102750952D01*
X158630952Y-102703333D01*
X158583333Y-102608095D01*
X158583333Y-102512857D01*
X158630952Y-102417619D01*
X158678571Y-102370000D01*
X158773809Y-102322381D01*
X159011905Y-102322381D01*
X159154762Y-102370000D01*
X159583333Y-102798571D02*
X159916667Y-102798571D01*
X160059524Y-103322381D02*
X159583333Y-103322381D01*
X159583333Y-102322381D01*
X160059524Y-102322381D01*
X160345238Y-102322381D02*
X160916667Y-102322381D01*
X160630952Y-103322381D02*
X160630952Y-102322381D01*
X157988096Y-104910000D02*
X157892858Y-104862381D01*
X157750001Y-104862381D01*
X157607143Y-104910000D01*
X157511905Y-105005238D01*
X157464286Y-105100476D01*
X157416667Y-105290952D01*
X157416667Y-105433810D01*
X157464286Y-105624286D01*
X157511905Y-105719524D01*
X157607143Y-105814762D01*
X157750001Y-105862381D01*
X157845239Y-105862381D01*
X157988096Y-105814762D01*
X158035715Y-105767143D01*
X158035715Y-105433810D01*
X157845239Y-105433810D01*
X158464286Y-105862381D02*
X158464286Y-104862381D01*
X159035715Y-105862381D01*
X159035715Y-104862381D01*
X159511905Y-105862381D02*
X159511905Y-104862381D01*
X159750000Y-104862381D01*
X159892858Y-104910000D01*
X159988096Y-105005238D01*
X160035715Y-105100476D01*
X160083334Y-105290952D01*
X160083334Y-105433810D01*
X160035715Y-105624286D01*
X159988096Y-105719524D01*
X159892858Y-105814762D01*
X159750000Y-105862381D01*
X159511905Y-105862381D01*
X158559524Y-112482381D02*
X158083333Y-112482381D01*
X158035714Y-112958571D01*
X158083333Y-112910952D01*
X158178571Y-112863333D01*
X158416667Y-112863333D01*
X158511905Y-112910952D01*
X158559524Y-112958571D01*
X158607143Y-113053810D01*
X158607143Y-113291905D01*
X158559524Y-113387143D01*
X158511905Y-113434762D01*
X158416667Y-113482381D01*
X158178571Y-113482381D01*
X158083333Y-113434762D01*
X158035714Y-113387143D01*
X158892857Y-112482381D02*
X159226190Y-113482381D01*
X159559524Y-112482381D01*
X157511905Y-109942381D02*
X158130953Y-109942381D01*
X157797619Y-110323333D01*
X157940477Y-110323333D01*
X158035715Y-110370952D01*
X158083334Y-110418571D01*
X158130953Y-110513810D01*
X158130953Y-110751905D01*
X158083334Y-110847143D01*
X158035715Y-110894762D01*
X157940477Y-110942381D01*
X157654762Y-110942381D01*
X157559524Y-110894762D01*
X157511905Y-110847143D01*
X158416667Y-109942381D02*
X158750000Y-110942381D01*
X159083334Y-109942381D01*
X159321429Y-109942381D02*
X159940477Y-109942381D01*
X159607143Y-110323333D01*
X159750001Y-110323333D01*
X159845239Y-110370952D01*
X159892858Y-110418571D01*
X159940477Y-110513810D01*
X159940477Y-110751905D01*
X159892858Y-110847143D01*
X159845239Y-110894762D01*
X159750001Y-110942381D01*
X159464286Y-110942381D01*
X159369048Y-110894762D01*
X159321429Y-110847143D01*
X157083334Y-108354762D02*
X157226191Y-108402381D01*
X157464287Y-108402381D01*
X157559525Y-108354762D01*
X157607144Y-108307143D01*
X157654763Y-108211905D01*
X157654763Y-108116667D01*
X157607144Y-108021429D01*
X157559525Y-107973810D01*
X157464287Y-107926190D01*
X157273810Y-107878571D01*
X157178572Y-107830952D01*
X157130953Y-107783333D01*
X157083334Y-107688095D01*
X157083334Y-107592857D01*
X157130953Y-107497619D01*
X157178572Y-107450000D01*
X157273810Y-107402381D01*
X157511906Y-107402381D01*
X157654763Y-107450000D01*
X157988096Y-107402381D02*
X158226191Y-108402381D01*
X158416668Y-107688095D01*
X158607144Y-108402381D01*
X158845239Y-107402381D01*
X159226191Y-108402381D02*
X159226191Y-107402381D01*
X159702381Y-108402381D02*
X159702381Y-107402381D01*
X160035715Y-108116667D01*
X160369048Y-107402381D01*
X160369048Y-108402381D01*
X173799524Y-112482381D02*
X173323333Y-112482381D01*
X173275714Y-112958571D01*
X173323333Y-112910952D01*
X173418571Y-112863333D01*
X173656667Y-112863333D01*
X173751905Y-112910952D01*
X173799524Y-112958571D01*
X173847143Y-113053810D01*
X173847143Y-113291905D01*
X173799524Y-113387143D01*
X173751905Y-113434762D01*
X173656667Y-113482381D01*
X173418571Y-113482381D01*
X173323333Y-113434762D01*
X173275714Y-113387143D01*
X174132857Y-112482381D02*
X174466190Y-113482381D01*
X174799524Y-112482381D01*
X172751905Y-109942381D02*
X173370953Y-109942381D01*
X173037619Y-110323333D01*
X173180477Y-110323333D01*
X173275715Y-110370952D01*
X173323334Y-110418571D01*
X173370953Y-110513810D01*
X173370953Y-110751905D01*
X173323334Y-110847143D01*
X173275715Y-110894762D01*
X173180477Y-110942381D01*
X172894762Y-110942381D01*
X172799524Y-110894762D01*
X172751905Y-110847143D01*
X173656667Y-109942381D02*
X173990000Y-110942381D01*
X174323334Y-109942381D01*
X174561429Y-109942381D02*
X175180477Y-109942381D01*
X174847143Y-110323333D01*
X174990001Y-110323333D01*
X175085239Y-110370952D01*
X175132858Y-110418571D01*
X175180477Y-110513810D01*
X175180477Y-110751905D01*
X175132858Y-110847143D01*
X175085239Y-110894762D01*
X174990001Y-110942381D01*
X174704286Y-110942381D01*
X174609048Y-110894762D01*
X174561429Y-110847143D01*
X173228096Y-104910000D02*
X173132858Y-104862381D01*
X172990001Y-104862381D01*
X172847143Y-104910000D01*
X172751905Y-105005238D01*
X172704286Y-105100476D01*
X172656667Y-105290952D01*
X172656667Y-105433810D01*
X172704286Y-105624286D01*
X172751905Y-105719524D01*
X172847143Y-105814762D01*
X172990001Y-105862381D01*
X173085239Y-105862381D01*
X173228096Y-105814762D01*
X173275715Y-105767143D01*
X173275715Y-105433810D01*
X173085239Y-105433810D01*
X173704286Y-105862381D02*
X173704286Y-104862381D01*
X174275715Y-105862381D01*
X174275715Y-104862381D01*
X174751905Y-105862381D02*
X174751905Y-104862381D01*
X174990000Y-104862381D01*
X175132858Y-104910000D01*
X175228096Y-105005238D01*
X175275715Y-105100476D01*
X175323334Y-105290952D01*
X175323334Y-105433810D01*
X175275715Y-105624286D01*
X175228096Y-105719524D01*
X175132858Y-105814762D01*
X174990000Y-105862381D01*
X174751905Y-105862381D01*
X171728095Y-108354762D02*
X171870952Y-108402381D01*
X172109048Y-108402381D01*
X172204286Y-108354762D01*
X172251905Y-108307143D01*
X172299524Y-108211905D01*
X172299524Y-108116667D01*
X172251905Y-108021429D01*
X172204286Y-107973810D01*
X172109048Y-107926190D01*
X171918571Y-107878571D01*
X171823333Y-107830952D01*
X171775714Y-107783333D01*
X171728095Y-107688095D01*
X171728095Y-107592857D01*
X171775714Y-107497619D01*
X171823333Y-107450000D01*
X171918571Y-107402381D01*
X172156667Y-107402381D01*
X172299524Y-107450000D01*
X172632857Y-107402381D02*
X172870952Y-108402381D01*
X173061429Y-107688095D01*
X173251905Y-108402381D01*
X173490000Y-107402381D01*
X174442381Y-108307143D02*
X174394762Y-108354762D01*
X174251905Y-108402381D01*
X174156667Y-108402381D01*
X174013809Y-108354762D01*
X173918571Y-108259524D01*
X173870952Y-108164286D01*
X173823333Y-107973810D01*
X173823333Y-107830952D01*
X173870952Y-107640476D01*
X173918571Y-107545238D01*
X174013809Y-107450000D01*
X174156667Y-107402381D01*
X174251905Y-107402381D01*
X174394762Y-107450000D01*
X174442381Y-107497619D01*
X175347143Y-108402381D02*
X174870952Y-108402381D01*
X174870952Y-107402381D01*
X175680476Y-108402381D02*
X175680476Y-107402381D01*
X176251905Y-108402381D02*
X175823333Y-107830952D01*
X176251905Y-107402381D02*
X175680476Y-107973810D01*
X171870953Y-103274762D02*
X172013810Y-103322381D01*
X172251906Y-103322381D01*
X172347144Y-103274762D01*
X172394763Y-103227143D01*
X172442382Y-103131905D01*
X172442382Y-103036667D01*
X172394763Y-102941429D01*
X172347144Y-102893810D01*
X172251906Y-102846190D01*
X172061429Y-102798571D01*
X171966191Y-102750952D01*
X171918572Y-102703333D01*
X171870953Y-102608095D01*
X171870953Y-102512857D01*
X171918572Y-102417619D01*
X171966191Y-102370000D01*
X172061429Y-102322381D01*
X172299525Y-102322381D01*
X172442382Y-102370000D01*
X172775715Y-102322381D02*
X173013810Y-103322381D01*
X173204287Y-102608095D01*
X173394763Y-103322381D01*
X173632858Y-102322381D01*
X174013810Y-103322381D02*
X174013810Y-102322381D01*
X174251905Y-102322381D01*
X174394763Y-102370000D01*
X174490001Y-102465238D01*
X174537620Y-102560476D01*
X174585239Y-102750952D01*
X174585239Y-102893810D01*
X174537620Y-103084286D01*
X174490001Y-103179524D01*
X174394763Y-103274762D01*
X174251905Y-103322381D01*
X174013810Y-103322381D01*
X175013810Y-103322381D02*
X175013810Y-102322381D01*
X175680476Y-102322381D02*
X175870953Y-102322381D01*
X175966191Y-102370000D01*
X176061429Y-102465238D01*
X176109048Y-102655714D01*
X176109048Y-102989048D01*
X176061429Y-103179524D01*
X175966191Y-103274762D01*
X175870953Y-103322381D01*
X175680476Y-103322381D01*
X175585238Y-103274762D01*
X175490000Y-103179524D01*
X175442381Y-102989048D01*
X175442381Y-102655714D01*
X175490000Y-102465238D01*
X175585238Y-102370000D01*
X175680476Y-102322381D01*
D12*
X155635000Y-102810000D02*
X152975000Y-102810000D01*
X155635000Y-110490000D02*
X155635000Y-102810000D01*
X152975000Y-110490000D02*
X152975000Y-102810000D01*
X155635000Y-110490000D02*
X152975000Y-110490000D01*
X155635000Y-111760000D02*
X155635000Y-113090000D01*
X155635000Y-113090000D02*
X154305000Y-113090000D01*
X163770000Y-114360000D02*
X168970000Y-114360000D01*
X163770000Y-104140000D02*
X163770000Y-114360000D01*
X168970000Y-101540000D02*
X168970000Y-114360000D01*
X163770000Y-104140000D02*
X166370000Y-104140000D01*
X166370000Y-104140000D02*
X166370000Y-101540000D01*
X166370000Y-101540000D02*
X168970000Y-101540000D01*
X163770000Y-102870000D02*
X163770000Y-101540000D01*
X163770000Y-101540000D02*
X165100000Y-101540000D01*
D13*
X151431667Y-103592381D02*
X151431667Y-104306667D01*
X151384047Y-104449524D01*
X151288809Y-104544762D01*
X151145952Y-104592381D01*
X151050714Y-104592381D01*
X152431667Y-104592381D02*
X151860238Y-104592381D01*
X152145952Y-104592381D02*
X152145952Y-103592381D01*
X152050714Y-103735238D01*
X151955476Y-103830476D01*
X151860238Y-103878095D01*
X159686667Y-99782381D02*
X159686667Y-100496667D01*
X159639047Y-100639524D01*
X159543809Y-100734762D01*
X159400952Y-100782381D01*
X159305714Y-100782381D01*
X160115238Y-99877619D02*
X160162857Y-99830000D01*
X160258095Y-99782381D01*
X160496191Y-99782381D01*
X160591429Y-99830000D01*
X160639048Y-99877619D01*
X160686667Y-99972857D01*
X160686667Y-100068095D01*
X160639048Y-100210952D01*
X160067619Y-100782381D01*
X160686667Y-100782381D01*
M02*
